<svg data-v-423bf9ae="" xmlns="http://www.w3.org/2000/svg" viewBox="0 0 337 90" class="iconLeft"><!----><!----><!----><g data-v-423bf9ae="" id="15df43f3-8e8a-4b26-847a-d40aa5f64fab" fill="#2e3034" transform="matrix(5.459508284166465,0,0,5.459508284166465,115.74479763224456,7.356688413122477)"><path d="M8.37 1.40L8.37 1.40Q8.67 1.40 8.86 1.59L8.86 1.59L8.86 1.59Q9.04 1.78 9.04 2.07L9.04 2.07L9.04 2.07Q9.04 2.37 8.86 2.55L8.86 2.55L8.86 2.55Q8.67 2.74 8.37 2.74L8.37 2.74L5.36 2.74L5.36 11.61L5.36 11.61Q5.36 11.91 5.15 12.12L5.15 12.12L5.15 12.12Q4.94 12.33 4.63 12.33L4.63 12.33L4.63 12.33Q4.33 12.33 4.12 12.12L4.12 12.12L4.12 12.12Q3.91 11.91 3.91 11.61L3.91 11.61L3.91 2.74L0.88 2.74L0.88 2.74Q0.59 2.74 0.40 2.55L0.40 2.55L0.40 2.55Q0.21 2.37 0.21 2.07L0.21 2.07L0.21 2.07Q0.21 1.78 0.40 1.59L0.40 1.59L0.40 1.59Q0.59 1.40 0.88 1.40L0.88 1.40L8.37 1.40ZM13.99 4.62L13.99 4.62Q15.06 4.62 15.94 5.13L15.94 5.13L15.94 5.13Q16.81 5.64 17.32 6.53L17.32 6.53L17.32 6.53Q17.84 7.42 17.84 8.51L17.84 8.51L17.84 11.63L17.84 11.63Q17.84 11.94 17.63 12.14L17.63 12.14L17.63 12.14Q17.43 12.35 17.12 12.35L17.12 12.35L17.12 12.35Q16.81 12.35 16.61 12.14L16.61 12.14L16.61 12.14Q16.41 11.94 16.41 11.63L16.41 11.63L16.41 11.12L16.41 11.12Q15.92 11.72 15.22 12.05L15.22 12.05L15.22 12.05Q14.52 12.39 13.71 12.39L13.71 12.39L13.71 12.39Q12.70 12.39 11.88 11.89L11.88 11.89L11.88 11.89Q11.06 11.38 10.59 10.49L10.59 10.49L10.59 10.49Q10.12 9.60 10.12 8.51L10.12 8.51L10.12 8.51Q10.12 7.42 10.63 6.53L10.63 6.53L10.63 6.53Q11.13 5.64 12.02 5.13L12.02 5.13L12.02 5.13Q12.91 4.62 13.99 4.62L13.99 4.62ZM13.99 11.13L13.99 11.13Q14.69 11.13 15.25 10.79L15.25 10.79L15.25 10.79Q15.82 10.44 16.14 9.85L16.14 9.85L16.14 9.85Q16.46 9.25 16.46 8.51L16.46 8.51L16.46 8.51Q16.46 7.77 16.14 7.17L16.14 7.17L16.14 7.17Q15.82 6.57 15.25 6.22L15.25 6.22L15.25 6.22Q14.69 5.88 13.99 5.88L13.99 5.88L13.99 5.88Q13.29 5.88 12.72 6.22L12.72 6.22L12.72 6.22Q12.15 6.57 11.82 7.17L11.82 7.17L11.82 7.17Q11.49 7.77 11.49 8.51L11.49 8.51L11.49 8.51Q11.49 9.25 11.82 9.85L11.82 9.85L11.82 9.85Q12.15 10.44 12.72 10.79L12.72 10.79L12.72 10.79Q13.29 11.13 13.99 11.13L13.99 11.13ZM28.01 4.61L28.01 4.61Q29.23 4.61 29.98 5.40L29.98 5.40L29.98 5.40Q30.73 6.20 30.73 7.63L30.73 7.63L30.73 11.63L30.73 11.63Q30.73 11.94 30.53 12.14L30.53 12.14L30.53 12.14Q30.34 12.35 30.02 12.35L30.02 12.35L30.02 12.35Q29.71 12.35 29.51 12.14L29.51 12.14L29.51 12.14Q29.30 11.94 29.30 11.63L29.30 11.63L29.30 7.63L29.30 7.63Q29.30 6.78 28.88 6.33L28.88 6.33L28.88 6.33Q28.45 5.89 27.73 5.89L27.73 5.89L27.73 5.89Q27.01 5.89 26.54 6.40L26.54 6.40L26.54 6.40Q26.07 6.90 26.07 7.69L26.07 7.69L26.07 11.63L26.07 11.63Q26.07 11.94 25.87 12.14L25.87 12.14L25.87 12.14Q25.68 12.35 25.35 12.35L25.35 12.35L25.35 12.35Q25.05 12.35 24.84 12.14L24.84 12.14L24.84 12.14Q24.64 11.94 24.64 11.63L24.64 11.63L24.64 7.63L24.64 7.63Q24.64 6.78 24.21 6.33L24.21 6.33L24.21 6.33Q23.79 5.89 23.07 5.89L23.07 5.89L23.07 5.89Q22.33 5.89 21.86 6.40L21.86 6.40L21.86 6.40Q21.39 6.90 21.39 7.69L21.39 7.69L21.39 11.63L21.39 11.63Q21.39 11.94 21.20 12.14L21.20 12.14L21.20 12.14Q21 12.35 20.68 12.35L20.68 12.35L20.68 12.35Q20.37 12.35 20.17 12.14L20.17 12.14L20.17 12.14Q19.96 11.94 19.96 11.63L19.96 11.63L19.96 5.40L19.96 5.40Q19.96 5.08 20.17 4.89L20.17 4.89L20.17 4.89Q20.37 4.69 20.68 4.69L20.68 4.69L20.68 4.69Q20.99 4.69 21.18 4.88L21.18 4.88L21.18 4.88Q21.38 5.07 21.39 5.38L21.39 5.38L21.39 5.38Q21.76 5.01 22.26 4.81L22.26 4.81L22.26 4.81Q22.76 4.61 23.35 4.61L23.35 4.61L23.35 4.61Q24.07 4.61 24.63 4.89L24.63 4.89L24.63 4.89Q25.20 5.18 25.56 5.71L25.56 5.71L25.56 5.71Q25.98 5.19 26.61 4.90L26.61 4.90L26.61 4.90Q27.24 4.61 28.01 4.61L28.01 4.61ZM36.57 4.62L36.57 4.62Q37.65 4.62 38.52 5.13L38.52 5.13L38.52 5.13Q39.40 5.64 39.91 6.53L39.91 6.53L39.91 6.53Q40.42 7.42 40.42 8.51L40.42 8.51L40.42 11.63L40.42 11.63Q40.42 11.94 40.21 12.14L40.21 12.14L40.21 12.14Q40.01 12.35 39.70 12.35L39.70 12.35L39.70 12.35Q39.40 12.35 39.19 12.14L39.19 12.14L39.19 12.14Q38.99 11.94 38.99 11.63L38.99 11.63L38.99 11.12L38.99 11.12Q38.50 11.72 37.80 12.05L37.80 12.05L37.80 12.05Q37.10 12.39 36.29 12.39L36.29 12.39L36.29 12.39Q35.28 12.39 34.46 11.89L34.46 11.89L34.46 11.89Q33.64 11.38 33.17 10.49L33.17 10.49L33.17 10.49Q32.70 9.60 32.70 8.51L32.70 8.51L32.70 8.51Q32.70 7.42 33.21 6.53L33.21 6.53L33.21 6.53Q33.71 5.64 34.60 5.13L34.60 5.13L34.60 5.13Q35.49 4.62 36.57 4.62L36.57 4.62ZM36.57 11.13L36.57 11.13Q37.27 11.13 37.84 10.79L37.84 10.79L37.84 10.79Q38.40 10.44 38.72 9.85L38.72 9.85L38.72 9.85Q39.05 9.25 39.05 8.51L39.05 8.51L39.05 8.51Q39.05 7.77 38.72 7.17L38.72 7.17L38.72 7.17Q38.40 6.57 37.84 6.22L37.84 6.22L37.84 6.22Q37.27 5.88 36.57 5.88L36.57 5.88L36.57 5.88Q35.87 5.88 35.30 6.22L35.30 6.22L35.30 6.22Q34.73 6.57 34.41 7.17L34.41 7.17L34.41 7.17Q34.08 7.77 34.08 8.51L34.08 8.51L34.08 8.51Q34.08 9.25 34.41 9.85L34.41 9.85L34.41 9.85Q34.73 10.44 35.30 10.79L35.30 10.79L35.30 10.79Q35.87 11.13 36.57 11.13L36.57 11.13Z"></path></g><!----><g data-v-423bf9ae="" id="132e4cf7-b79f-488d-97c5-936dedb4e709" transform="matrix(3.681068777110151,0,0,3.681068777110151,0.5570359810984655,1.0013813367893647)" stroke="none" fill="#488eff"><path d="M6.808 6.742c-.44-2.213-1.967-4.084-3.793-4.084-1.825 0-3.016 2.412-3.016 4.668s1.969 3.988 3.794 3.988c1.827 0 3.501-2.141 3.015-4.572zM10.206 8.623c1.758.488 3.946-1.123 4.131-3.596.166-2.25-.798-4.463-2.56-4.953-1.76-.49-3.552 1.516-4.155 3.689-.605 2.174.826 4.369 2.584 4.86zM21.366 9.521c1.067-1.988 1.085-4.402-.326-5.564-1.405-1.164-3.859-.059-5.297 1.682-1.437 1.738-1.021 4.326.389 5.49 1.408 1.162 4.061.578 5.234-1.608zM26.068 12.492c-.729-1.49-3.175-1.5-5.017-.6-1.842.898-2.473 3.197-1.744 4.688.729 1.492 3.146 2.006 4.938.641 1.632-1.245 2.551-3.237 1.823-4.729zM11.672 10.048c-4.37-.271-9.823 3.045-9.823 7.102s4.666 7.23 9.045 7.297c6.76.096 8.241-3.455 7.491-7.443-.78-4.133-3.6-6.76-6.713-6.956z"></path></g><!----></svg>